<svg width="1920" height="688" viewBox="0 0 1920 688" fill="none" xmlns="http://www.w3.org/2000/svg">
<rect width="1920" height="688" fill="#0F1B33"/>
<mask id="mask0_101_9" style="mask-type:alpha" maskUnits="userSpaceOnUse" x="0" y="0" width="1920" height="688">
<rect width="1920" height="688" fill="#0F1B33"/>
</mask>
<g mask="url(#mask0_101_9)">
<path d="M780.228 639.211L746.087 736.736H855.323L885.385 639.211H780.228Z" fill="#4773FC" fill-opacity="0.05"/>
<path d="M1045.23 296.794H900.06L807.153 562.251H746V639.211H1055.5L1085.56 736.735H1198.47L1045.23 296.794ZM909.592 562.216L926.445 507.964C938.923 468.369 951.384 427.309 962.38 387.714H979.982C990.247 427.309 1001.98 468.369 1014.44 507.964L1031.31 562.216H909.592Z" fill="#4773FC" fill-opacity="0.05"/>
<path d="M1328.24 736.718H1228.52V266H1328.24V736.718Z" fill="#4773FC" fill-opacity="0.05"/>
<path d="M1383.22 570.285C1383.22 450.035 1448.47 379.645 1561.4 379.645C1668.44 379.645 1719.03 442.698 1719.03 538.759C1719.03 553.415 1718.3 567.357 1716.84 585.691H1481.48C1487.35 641.424 1513 666.346 1560.67 666.346C1608.33 666.346 1622.26 644.352 1631.06 617.949L1714.64 640.675C1699.25 700.8 1658.91 746.251 1559.94 746.251C1455.09 746.251 1383.24 688.322 1383.24 570.285H1383.22ZM1627.38 535.081C1625.92 480.829 1603.19 454.427 1558.45 454.427C1513.72 454.427 1487.33 477.884 1482.19 535.081H1627.38Z" fill="#4773FC" fill-opacity="0.05"/>
<path d="M1917.72 599.616H1905.26L1851.01 736.718H1739.56V728.649L1839.28 554.879L1741.03 397.229V389.16H1855.4L1915.53 523.335H1928.72L1983.7 389.16H2089.28V397.229L1994.7 569.536L2093.69 728.649V736.718H1979.31L1917.72 599.616Z" fill="#4773FC" fill-opacity="0.05"/>
<path d="M2196.65 569.518V480.673H2231.8C2241.2 480.673 2249.44 482.572 2256.55 486.389C2263.66 490.205 2269.19 495.451 2273.11 502.126C2277.04 508.818 2279.01 516.469 2279.01 525.095C2279.01 533.722 2277.04 541.39 2273.11 548.065C2269.17 554.757 2263.64 560.003 2256.55 563.802C2249.44 567.601 2241.2 569.518 2231.8 569.518H2196.65ZM2203.12 563.68H2231.3C2239.68 563.68 2246.95 562.024 2253.13 558.731C2259.3 555.437 2264.1 550.888 2267.48 545.085C2270.86 539.281 2272.55 532.624 2272.55 525.095C2272.55 517.567 2270.86 510.909 2267.48 505.106C2264.1 499.303 2259.3 494.754 2253.13 491.46C2246.96 488.166 2239.68 486.511 2231.3 486.511H2203.12V563.68Z" fill="#4773FC" fill-opacity="0.05"/>
<path d="M2362.79 563.68V569.518H2301.48V480.673H2360.87V486.511H2307.94V563.68H2362.79ZM2307.19 521.54H2355.29V527.256H2307.19V521.54Z" fill="#4773FC" fill-opacity="0.05"/>
<path d="M2409.74 570.146C2403.13 570.146 2396.89 569.03 2391.02 566.782C2385.13 564.534 2380.58 561.641 2377.38 558.086L2380.3 553.258C2383.35 556.395 2387.52 559.027 2392.8 561.188C2398.08 563.349 2403.69 564.429 2409.62 564.429C2415.54 564.429 2420.39 563.645 2424.15 562.077C2427.92 560.508 2430.7 558.417 2432.53 555.803C2434.35 553.189 2435.27 550.261 2435.27 547.054C2435.27 543.238 2434.26 540.205 2432.22 537.922C2430.2 535.639 2427.53 533.827 2424.22 532.467C2420.93 531.108 2417.32 529.975 2413.43 529.034C2409.55 528.11 2405.61 527.117 2401.63 526.054C2397.66 524.991 2394.02 523.614 2390.72 521.924C2387.43 520.233 2384.78 517.933 2382.8 515.005C2380.81 512.094 2379.82 508.295 2379.82 503.642C2379.82 499.407 2380.91 495.521 2383.11 491.966C2385.3 488.41 2388.74 485.535 2393.39 483.339C2398.04 481.143 2404 480.045 2411.29 480.045C2416.2 480.045 2421.05 480.76 2425.82 482.206C2430.6 483.653 2434.69 485.587 2438.08 488.044L2435.67 493.255C2431.94 490.711 2427.95 488.829 2423.68 487.609C2419.41 486.389 2415.28 485.761 2411.31 485.761C2405.64 485.761 2400.94 486.563 2397.23 488.166C2393.5 489.77 2390.76 491.913 2388.98 494.58C2387.2 497.246 2386.32 500.226 2386.32 503.52C2386.32 507.319 2387.31 510.369 2389.3 512.652C2391.28 514.935 2393.93 516.765 2397.23 518.107C2400.52 519.466 2404.16 520.599 2408.13 521.54C2412.11 522.481 2416.05 523.457 2419.93 524.52C2423.82 525.583 2427.43 526.96 2430.72 528.651C2434.01 530.341 2436.68 532.624 2438.72 535.5C2440.74 538.375 2441.77 542.105 2441.77 546.671C2441.77 550.819 2440.62 554.687 2438.34 558.277C2436.05 561.868 2432.57 564.743 2427.86 566.904C2423.17 569.065 2417.14 570.146 2409.77 570.146H2409.74Z" fill="#4773FC" fill-opacity="0.05"/>
<path d="M2463.69 569.518V480.673H2470.16V569.518H2463.69Z" fill="#4773FC" fill-opacity="0.05"/>
<path d="M2539.09 570.146C2532.39 570.146 2526.22 569.03 2520.56 566.782C2514.9 564.534 2509.96 561.38 2505.78 557.319C2501.6 553.258 2498.36 548.501 2496.07 543.046C2493.79 537.591 2492.64 531.596 2492.64 525.095C2492.64 518.595 2493.79 512.6 2496.07 507.128C2498.36 501.673 2501.62 496.915 2505.85 492.854C2510.09 488.794 2515 485.639 2520.63 483.391C2526.26 481.143 2532.45 480.028 2539.22 480.028C2546 480.028 2551.62 481.039 2557.12 483.078C2562.63 485.117 2567.32 488.149 2571.2 492.21L2567.14 496.532C2563.26 492.732 2559.01 490.014 2554.39 488.41C2549.77 486.807 2544.77 486.005 2539.35 486.005C2533.6 486.005 2528.26 486.981 2523.35 488.916C2518.43 490.868 2514.16 493.604 2510.54 497.159C2506.9 500.714 2504.09 504.862 2502.1 509.602C2500.12 514.343 2499.12 519.501 2499.12 525.095C2499.12 530.69 2500.12 535.848 2502.1 540.571C2504.09 545.311 2506.9 549.459 2510.54 553.014C2514.18 556.57 2518.45 559.323 2523.35 561.258C2528.26 563.209 2533.58 564.168 2539.35 564.168C2544.59 564.168 2549.56 563.366 2554.26 561.763C2558.95 560.16 2563.26 557.493 2567.14 553.764L2570.82 558.713C2566.85 562.512 2562.09 565.37 2556.55 567.287C2551.01 569.187 2545.19 570.146 2539.1 570.146H2539.09ZM2564.58 558.103V525.479H2570.8V558.731L2564.58 558.103Z" fill="#4773FC" fill-opacity="0.05"/>
<path d="M2599.25 569.518V480.673H2604.7L2668.03 561.519H2665.1V480.673H2671.57V569.518H2666.24L2602.78 488.672H2605.69V569.518H2599.23H2599.25Z" fill="#4773FC" fill-opacity="0.05"/>
<path d="M2216.71 722.462C2211.13 722.462 2206.15 721.539 2201.79 719.674C2197.44 717.809 2194 715.212 2191.51 711.866C2189.02 708.52 2187.76 704.651 2187.76 700.26C2187.76 696.617 2188.57 693.254 2190.17 690.169C2191.77 687.084 2194.42 684 2198.1 680.898C2201.78 677.813 2206.71 674.536 2212.88 671.068C2218.3 667.931 2222.57 665.23 2225.69 662.947C2228.82 660.664 2231.02 658.468 2232.29 656.342C2233.56 654.233 2234.19 651.95 2234.19 649.493C2234.19 645.851 2232.99 642.94 2230.57 640.744C2228.16 638.549 2224.71 637.451 2220.21 637.451C2215.47 637.451 2211.78 638.653 2209.11 641.076C2206.45 643.481 2205.12 646.687 2205.12 650.661C2205.12 652.526 2205.42 654.303 2206.01 655.994C2206.6 657.684 2207.68 659.566 2209.25 661.64C2210.82 663.714 2213 666.276 2215.79 669.326L2262.88 718.959L2259.06 723.142L2210.58 672.114C2207.61 668.977 2205.3 666.241 2203.59 663.871C2201.9 661.501 2200.73 659.287 2200.1 657.213C2199.46 655.14 2199.14 652.961 2199.14 650.678C2199.14 647.036 2200.02 643.864 2201.74 641.163C2203.47 638.461 2205.92 636.335 2209.09 634.819C2212.27 633.303 2215.96 632.536 2220.2 632.536C2224.17 632.536 2227.62 633.216 2230.55 634.575C2233.48 635.934 2235.72 637.852 2237.34 640.344C2238.95 642.836 2239.75 645.868 2239.75 649.423C2239.75 652.56 2239 655.453 2237.52 658.12C2236.04 660.786 2233.56 663.453 2230.1 666.119C2226.63 668.785 2221.89 671.818 2215.87 675.199C2210.3 678.423 2205.89 681.333 2202.68 683.947C2199.46 686.579 2197.21 689.123 2195.88 691.633C2194.58 694.125 2193.92 696.861 2193.92 699.824C2193.92 703.292 2194.89 706.342 2196.84 708.956C2198.8 711.587 2201.48 713.609 2204.89 715.056C2208.33 716.502 2212.32 717.217 2216.88 717.217C2222.98 717.217 2228.39 715.962 2233.13 713.47C2237.87 710.978 2241.84 707.196 2245.07 702.107C2248.27 697.035 2250.61 690.64 2252.05 682.937L2257.26 684.592C2255.66 692.975 2252.99 699.963 2249.27 705.592C2245.54 711.221 2240.93 715.456 2235.43 718.28C2229.92 721.12 2223.66 722.532 2216.64 722.532L2216.71 722.462Z" fill="#4773FC" fill-opacity="0.05"/>
<path d="M2337.27 721.818L2297.68 632.972H2304.79L2342.61 717.879H2338.67L2376.63 632.972H2383.35L2343.76 721.818H2337.27Z" fill="#4773FC" fill-opacity="0.05"/>
<path d="M2399.6 721.818V632.972H2406.06V721.818H2399.6Z" fill="#4773FC" fill-opacity="0.05"/>
<path d="M2437.03 721.818V632.972H2472.18C2481.57 632.972 2489.82 634.872 2496.93 638.688C2504.04 642.505 2509.56 647.751 2513.48 654.425C2517.42 661.117 2519.39 668.768 2519.39 677.395C2519.39 686.021 2517.42 693.69 2513.48 700.364C2509.55 707.056 2504.02 712.302 2496.93 716.101C2489.82 719.901 2481.57 721.818 2472.18 721.818H2437.03ZM2443.51 715.979H2471.69C2480.08 715.979 2487.34 714.324 2493.53 711.03C2499.7 707.736 2504.49 703.188 2507.87 697.384C2511.25 691.581 2512.94 684.923 2512.94 677.395C2512.94 669.866 2511.25 663.209 2507.87 657.405C2504.49 651.602 2499.7 647.053 2493.53 643.76C2487.36 640.466 2480.08 638.81 2471.69 638.81H2443.51V715.979Z" fill="#4773FC" fill-opacity="0.05"/>
<path d="M2603.17 715.979V721.818H2541.86V632.972H2601.25V638.81H2548.32V715.979H2603.17ZM2547.59 673.84H2595.69V679.556H2547.59V673.84Z" fill="#4773FC" fill-opacity="0.05"/>
<path d="M2664.48 722.462C2657.87 722.462 2651.75 721.347 2646.14 719.099C2640.51 716.851 2635.62 713.679 2631.42 709.583C2627.23 705.488 2623.99 700.695 2621.71 695.24C2619.43 689.786 2618.28 683.843 2618.28 677.412C2618.28 670.981 2619.43 665.039 2621.71 659.584C2623.99 654.129 2627.23 649.354 2631.42 645.241C2635.6 641.128 2640.51 637.956 2646.14 635.725C2651.77 633.477 2657.89 632.362 2664.48 632.362C2671.06 632.362 2677.18 633.477 2682.81 635.725C2688.44 637.974 2693.32 641.128 2697.47 645.189C2701.61 649.249 2704.86 654.007 2707.17 659.462C2709.51 664.917 2710.66 670.912 2710.66 677.43C2710.66 683.947 2709.49 689.925 2707.17 695.38C2704.84 700.835 2701.61 705.592 2697.47 709.653C2693.32 713.714 2688.44 716.868 2682.81 719.116C2677.18 721.364 2671.06 722.48 2664.48 722.48V722.462ZM2664.48 716.485C2670.14 716.485 2675.39 715.509 2680.21 713.574C2685.04 711.622 2689.22 708.886 2692.78 705.331C2696.33 701.776 2699.1 697.628 2701.09 692.888C2703.08 688.147 2704.07 682.989 2704.07 677.412C2704.07 671.835 2703.08 666.555 2701.09 661.867C2699.1 657.179 2696.33 653.048 2692.78 649.493C2689.22 645.938 2685.04 643.184 2680.21 641.25C2675.39 639.298 2670.14 638.34 2664.48 638.34C2658.81 638.34 2653.57 639.316 2648.74 641.25C2643.91 643.202 2639.71 645.938 2636.1 649.493C2632.51 653.048 2629.71 657.179 2627.72 661.867C2625.74 666.555 2624.74 671.748 2624.74 677.412C2624.74 683.076 2625.74 688.165 2627.72 692.888C2629.71 697.628 2632.5 701.776 2636.1 705.331C2639.69 708.886 2643.91 711.64 2648.74 713.574C2653.57 715.526 2658.81 716.485 2664.48 716.485Z" fill="#4773FC" fill-opacity="0.05"/>
</g>
</svg>
