<svg width="1920" height="730" viewBox="0 0 1920 730" fill="none" xmlns="http://www.w3.org/2000/svg">
<rect width="1920" height="688" fill="#0F1B33"/>
<path d="M822.228 622.211L788.087 719.736H897.323L927.385 622.211H822.228Z" fill="#4773FC" fill-opacity="0.05"/>
<path d="M1087.23 279.794H942.06L849.153 545.251H788V622.211H1097.5L1127.56 719.735H1240.47L1087.23 279.794ZM951.592 545.216L968.445 490.964C980.923 451.369 993.384 410.309 1004.38 370.714H1021.98C1032.25 410.309 1043.98 451.369 1056.44 490.964L1073.31 545.216H951.592Z" fill="#4773FC" fill-opacity="0.05"/>
<path d="M1370.24 719.718H1270.52V249H1370.24V719.718Z" fill="#4773FC" fill-opacity="0.05"/>
<path d="M1425.22 553.285C1425.22 433.035 1490.47 362.645 1603.4 362.645C1710.44 362.645 1761.03 425.698 1761.03 521.759C1761.03 536.415 1760.3 550.357 1758.84 568.691H1523.48C1529.35 624.424 1555 649.346 1602.67 649.346C1650.33 649.346 1664.26 627.352 1673.06 600.949L1756.64 623.675C1741.25 683.8 1700.91 729.251 1601.94 729.251C1497.09 729.251 1425.24 671.322 1425.24 553.285H1425.22ZM1669.38 518.081C1667.92 463.829 1645.19 437.427 1600.45 437.427C1555.72 437.427 1529.33 460.884 1524.19 518.081H1669.38Z" fill="#4773FC" fill-opacity="0.05"/>
<path d="M1959.72 582.616H1947.26L1893.01 719.718H1781.56V711.649L1881.28 537.879L1783.03 380.229V372.16H1897.4L1957.53 506.335H1970.72L2025.7 372.16H2131.28V380.229L2036.7 552.536L2135.69 711.649V719.718H2021.31L1959.72 582.616Z" fill="#4773FC" fill-opacity="0.05"/>
<path d="M2238.65 552.518V463.673H2273.8C2283.2 463.673 2291.44 465.572 2298.55 469.389C2305.66 473.205 2311.19 478.451 2315.11 485.126C2319.04 491.818 2321.01 499.469 2321.01 508.095C2321.01 516.722 2319.04 524.39 2315.11 531.065C2311.17 537.757 2305.64 543.003 2298.55 546.802C2291.44 550.601 2283.2 552.518 2273.8 552.518H2238.65ZM2245.12 546.68H2273.3C2281.68 546.68 2288.95 545.024 2295.13 541.731C2301.3 538.437 2306.1 533.888 2309.48 528.085C2312.86 522.281 2314.55 515.624 2314.55 508.095C2314.55 500.567 2312.86 493.909 2309.48 488.106C2306.1 482.303 2301.3 477.754 2295.13 474.46C2288.96 471.166 2281.68 469.511 2273.3 469.511H2245.12V546.68Z" fill="#4773FC" fill-opacity="0.05"/>
<path d="M2404.79 546.68V552.518H2343.48V463.673H2402.87V469.511H2349.94V546.68H2404.79ZM2349.19 504.54H2397.29V510.256H2349.19V504.54Z" fill="#4773FC" fill-opacity="0.05"/>
<path d="M2451.74 553.146C2445.13 553.146 2438.89 552.03 2433.02 549.782C2427.13 547.534 2422.58 544.641 2419.38 541.086L2422.3 536.258C2425.35 539.395 2429.52 542.027 2434.8 544.188C2440.08 546.349 2445.69 547.429 2451.62 547.429C2457.54 547.429 2462.39 546.645 2466.15 545.077C2469.92 543.508 2472.7 541.417 2474.53 538.803C2476.35 536.189 2477.27 533.261 2477.27 530.054C2477.27 526.238 2476.26 523.205 2474.22 520.922C2472.2 518.639 2469.53 516.827 2466.22 515.467C2462.93 514.108 2459.32 512.975 2455.43 512.034C2451.55 511.11 2447.61 510.117 2443.63 509.054C2439.66 507.991 2436.02 506.614 2432.72 504.924C2429.43 503.233 2426.78 500.933 2424.8 498.005C2422.81 495.094 2421.82 491.295 2421.82 486.642C2421.82 482.407 2422.91 478.521 2425.11 474.966C2427.3 471.41 2430.74 468.535 2435.39 466.339C2440.04 464.143 2446 463.045 2453.29 463.045C2458.2 463.045 2463.05 463.76 2467.82 465.206C2472.6 466.653 2476.69 468.587 2480.08 471.044L2477.67 476.255C2473.94 473.711 2469.95 471.829 2465.68 470.609C2461.41 469.389 2457.28 468.761 2453.31 468.761C2447.64 468.761 2442.94 469.563 2439.23 471.166C2435.5 472.77 2432.76 474.913 2430.98 477.58C2429.2 480.246 2428.32 483.226 2428.32 486.52C2428.32 490.319 2429.31 493.369 2431.3 495.652C2433.28 497.935 2435.93 499.765 2439.23 501.107C2442.52 502.466 2446.16 503.599 2450.13 504.54C2454.11 505.481 2458.05 506.457 2461.93 507.52C2465.82 508.583 2469.43 509.96 2472.72 511.651C2476.01 513.341 2478.68 515.624 2480.72 518.5C2482.74 521.375 2483.77 525.105 2483.77 529.671C2483.77 533.819 2482.62 537.687 2480.34 541.277C2478.05 544.868 2474.57 547.743 2469.86 549.904C2465.17 552.065 2459.14 553.146 2451.77 553.146H2451.74Z" fill="#4773FC" fill-opacity="0.05"/>
<path d="M2505.69 552.518V463.673H2512.16V552.518H2505.69Z" fill="#4773FC" fill-opacity="0.05"/>
<path d="M2581.09 553.146C2574.39 553.146 2568.22 552.03 2562.56 549.782C2556.9 547.534 2551.96 544.38 2547.78 540.319C2543.6 536.258 2540.36 531.501 2538.07 526.046C2535.79 520.591 2534.64 514.596 2534.64 508.095C2534.64 501.595 2535.79 495.6 2538.07 490.128C2540.36 484.673 2543.62 479.915 2547.85 475.854C2552.09 471.794 2557 468.639 2562.63 466.391C2568.26 464.143 2574.45 463.028 2581.22 463.028C2588 463.028 2593.62 464.039 2599.12 466.078C2604.63 468.117 2609.32 471.149 2613.2 475.21L2609.14 479.532C2605.26 475.732 2601.01 473.014 2596.39 471.41C2591.77 469.807 2586.77 469.005 2581.35 469.005C2575.6 469.005 2570.26 469.981 2565.35 471.916C2560.43 473.868 2556.16 476.604 2552.54 480.159C2548.9 483.714 2546.09 487.862 2544.1 492.602C2542.12 497.343 2541.12 502.501 2541.12 508.095C2541.12 513.69 2542.12 518.848 2544.1 523.571C2546.09 528.311 2548.9 532.459 2552.54 536.014C2556.18 539.57 2560.45 542.323 2565.35 544.258C2570.26 546.209 2575.58 547.168 2581.35 547.168C2586.59 547.168 2591.56 546.366 2596.26 544.763C2600.95 543.16 2605.26 540.493 2609.14 536.764L2612.82 541.713C2608.85 545.512 2604.09 548.37 2598.55 550.287C2593.01 552.187 2587.19 553.146 2581.1 553.146H2581.09ZM2606.58 541.103V508.479H2612.8V541.731L2606.58 541.103Z" fill="#4773FC" fill-opacity="0.05"/>
<path d="M2641.25 552.518V463.673H2646.7L2710.03 544.519H2707.1V463.673H2713.57V552.518H2708.24L2644.78 471.672H2647.69V552.518H2641.23H2641.25Z" fill="#4773FC" fill-opacity="0.05"/>
<path d="M2258.71 705.462C2253.13 705.462 2248.15 704.539 2243.79 702.674C2239.44 700.809 2236 698.212 2233.51 694.866C2231.02 691.52 2229.76 687.651 2229.76 683.26C2229.76 679.617 2230.57 676.254 2232.17 673.169C2233.77 670.084 2236.42 667 2240.1 663.898C2243.78 660.813 2248.71 657.536 2254.88 654.068C2260.3 650.931 2264.57 648.23 2267.69 645.947C2270.82 643.664 2273.02 641.468 2274.29 639.342C2275.56 637.233 2276.19 634.95 2276.19 632.493C2276.19 628.851 2274.99 625.94 2272.57 623.744C2270.16 621.549 2266.71 620.451 2262.21 620.451C2257.47 620.451 2253.78 621.653 2251.11 624.076C2248.45 626.481 2247.12 629.687 2247.12 633.661C2247.12 635.526 2247.42 637.303 2248.01 638.994C2248.6 640.684 2249.68 642.566 2251.25 644.64C2252.82 646.714 2255 649.276 2257.79 652.326L2304.88 701.959L2301.06 706.142L2252.58 655.114C2249.61 651.977 2247.3 649.241 2245.59 646.871C2243.9 644.501 2242.73 642.287 2242.1 640.214C2241.46 638.14 2241.14 635.961 2241.14 633.678C2241.14 630.036 2242.02 626.864 2243.74 624.163C2245.47 621.461 2247.92 619.335 2251.09 617.819C2254.27 616.303 2257.96 615.536 2262.2 615.536C2266.17 615.536 2269.62 616.216 2272.55 617.575C2275.48 618.934 2277.72 620.852 2279.34 623.344C2280.95 625.836 2281.75 628.868 2281.75 632.423C2281.75 635.56 2281 638.453 2279.52 641.12C2278.04 643.786 2275.56 646.453 2272.1 649.119C2268.63 651.785 2263.89 654.818 2257.87 658.199C2252.3 661.423 2247.89 664.333 2244.68 666.947C2241.46 669.579 2239.21 672.123 2237.88 674.633C2236.58 677.125 2235.92 679.861 2235.92 682.824C2235.92 686.292 2236.89 689.342 2238.84 691.956C2240.8 694.587 2243.48 696.609 2246.89 698.056C2250.33 699.502 2254.32 700.217 2258.88 700.217C2264.98 700.217 2270.39 698.962 2275.13 696.47C2279.87 693.978 2283.84 690.196 2287.07 685.107C2290.27 680.035 2292.61 673.64 2294.05 665.937L2299.26 667.592C2297.66 675.975 2294.99 682.963 2291.27 688.592C2287.54 694.221 2282.93 698.456 2277.43 701.28C2271.92 704.12 2265.66 705.532 2258.64 705.532L2258.71 705.462Z" fill="#4773FC" fill-opacity="0.05"/>
<path d="M2379.27 704.818L2339.68 615.972H2346.79L2384.61 700.879H2380.67L2418.63 615.972H2425.35L2385.76 704.818H2379.27Z" fill="#4773FC" fill-opacity="0.05"/>
<path d="M2441.6 704.818V615.972H2448.06V704.818H2441.6Z" fill="#4773FC" fill-opacity="0.05"/>
<path d="M2479.03 704.818V615.972H2514.18C2523.57 615.972 2531.82 617.872 2538.93 621.688C2546.04 625.505 2551.56 630.751 2555.48 637.425C2559.42 644.117 2561.39 651.768 2561.39 660.395C2561.39 669.021 2559.42 676.69 2555.48 683.364C2551.55 690.056 2546.02 695.302 2538.93 699.101C2531.82 702.901 2523.57 704.818 2514.18 704.818H2479.03ZM2485.51 698.979H2513.69C2522.08 698.979 2529.34 697.324 2535.53 694.03C2541.7 690.736 2546.49 686.188 2549.87 680.384C2553.25 674.581 2554.94 667.923 2554.94 660.395C2554.94 652.866 2553.25 646.209 2549.87 640.405C2546.49 634.602 2541.7 630.053 2535.53 626.76C2529.36 623.466 2522.08 621.81 2513.69 621.81H2485.51V698.979Z" fill="#4773FC" fill-opacity="0.05"/>
<path d="M2645.17 698.979V704.818H2583.86V615.972H2643.25V621.81H2590.32V698.979H2645.17ZM2589.59 656.84H2637.69V662.556H2589.59V656.84Z" fill="#4773FC" fill-opacity="0.05"/>
<path d="M2706.48 705.462C2699.87 705.462 2693.75 704.347 2688.14 702.099C2682.51 699.851 2677.62 696.679 2673.42 692.583C2669.23 688.488 2665.99 683.695 2663.71 678.24C2661.43 672.786 2660.28 666.843 2660.28 660.412C2660.28 653.981 2661.43 648.039 2663.71 642.584C2665.99 637.129 2669.23 632.354 2673.42 628.241C2677.6 624.128 2682.51 620.956 2688.14 618.725C2693.77 616.477 2699.89 615.362 2706.48 615.362C2713.06 615.362 2719.18 616.477 2724.81 618.725C2730.44 620.974 2735.32 624.128 2739.47 628.189C2743.61 632.249 2746.86 637.007 2749.17 642.462C2751.51 647.917 2752.66 653.912 2752.66 660.43C2752.66 666.947 2751.49 672.925 2749.17 678.38C2746.84 683.835 2743.61 688.592 2739.47 692.653C2735.32 696.714 2730.44 699.868 2724.81 702.116C2719.18 704.364 2713.06 705.48 2706.48 705.48V705.462ZM2706.48 699.485C2712.14 699.485 2717.39 698.509 2722.21 696.574C2727.04 694.622 2731.22 691.886 2734.78 688.331C2738.33 684.776 2741.1 680.628 2743.09 675.888C2745.08 671.147 2746.07 665.989 2746.07 660.412C2746.07 654.835 2745.08 649.555 2743.09 644.867C2741.1 640.179 2738.33 636.048 2734.78 632.493C2731.22 628.938 2727.04 626.184 2722.21 624.25C2717.39 622.298 2712.14 621.34 2706.48 621.34C2700.81 621.34 2695.57 622.316 2690.74 624.25C2685.91 626.202 2681.71 628.938 2678.1 632.493C2674.51 636.048 2671.71 640.179 2669.72 644.867C2667.74 649.555 2666.74 654.748 2666.74 660.412C2666.74 666.076 2667.74 671.165 2669.72 675.888C2671.71 680.628 2674.5 684.776 2678.1 688.331C2681.69 691.886 2685.91 694.64 2690.74 696.574C2695.57 698.526 2700.81 699.485 2706.48 699.485Z" fill="#4773FC" fill-opacity="0.05"/>
</svg>
