<svg width="349" height="86" viewBox="0 0 349 86" fill="none" xmlns="http://www.w3.org/2000/svg">
<path d="M6.07506 66.2411L0.0154597 83.5507H19.4037L24.7395 66.2411H6.07506Z" fill="#EBF1FF"/>
<path d="M53.1104 5.4657H27.344L10.8541 52.5815H0V66.2411H54.9323L60.2681 83.5507H80.309L53.1104 5.4657ZM29.036 52.5753L32.0271 42.9461C34.2418 35.9184 36.4535 28.6308 38.4053 21.603H41.5294C43.3513 28.6308 45.4331 35.9184 47.6447 42.9461L50.6389 52.5753H29.036Z" fill="#EBF1FF"/>
<path d="M103.341 83.5476H85.6417V0H103.341V83.5476Z" fill="#EBF1FF"/>
<path d="M113.1 54.0075C113.1 32.6643 124.681 20.1708 144.725 20.1708C163.724 20.1708 172.703 31.3621 172.703 48.4118C172.703 51.0132 172.573 53.4878 172.313 56.7419H130.54C131.582 66.6339 136.135 71.0572 144.595 71.0572C153.055 71.0572 155.527 67.1536 157.089 62.4674L171.924 66.5009C169.192 77.1725 162.032 85.2396 144.465 85.2396C125.857 85.2396 113.103 74.9578 113.103 54.0075H113.1ZM156.436 47.7592C156.176 38.13 152.143 33.4438 144.202 33.4438C136.262 33.4438 131.579 37.6073 130.666 47.7592H156.436Z" fill="#EBF1FF"/>
<path d="M207.969 59.2133H205.757L196.128 83.5476H176.347V82.1154L194.046 51.273L176.607 23.2919V21.8597H196.908L207.579 45.6743H209.921L219.68 21.8597H238.418V23.2919L221.632 53.8744L239.201 82.1154V83.5476H218.9L207.969 59.2133Z" fill="#EBF1FF"/>
<path d="M257.476 53.8714V38.1022H263.715C265.382 38.1022 266.845 38.4393 268.107 39.1168C269.369 39.7942 270.35 40.7252 271.046 41.9099C271.745 43.0977 272.094 44.4556 272.094 45.9868C272.094 47.5179 271.745 48.8789 271.046 50.0636C270.347 51.2514 269.366 52.1825 268.107 52.8568C266.845 53.5311 265.382 53.8714 263.715 53.8714H257.476ZM258.623 52.8351H263.625C265.113 52.8351 266.403 52.5413 267.501 51.9567C268.596 51.3721 269.446 50.5647 270.047 49.5347C270.647 48.5046 270.947 47.323 270.947 45.9868C270.947 44.6505 270.647 43.4689 270.047 42.4389C269.446 41.4088 268.596 40.6015 267.501 40.0169C266.406 39.4323 265.113 39.1384 263.625 39.1384H258.623V52.8351Z" fill="#EBF1FF"/>
<path d="M286.963 52.8351V53.8714H276.081V38.1022H286.623V39.1384H277.229V52.8351H286.963ZM277.096 45.3558H285.633V46.3703H277.096V45.3558Z" fill="#EBF1FF"/>
<path d="M295.296 53.9827C294.124 53.9827 293.017 53.7848 291.974 53.3857C290.929 52.9867 290.121 52.4732 289.552 51.8422L290.072 50.9854C290.613 51.5422 291.353 52.0093 292.29 52.3928C293.227 52.7764 294.223 52.9682 295.275 52.9682C296.326 52.9682 297.186 52.829 297.854 52.5506C298.523 52.2722 299.018 51.901 299.342 51.437C299.664 50.973 299.828 50.4534 299.828 49.8842C299.828 49.2068 299.649 48.6686 299.287 48.2634C298.928 47.8582 298.455 47.5365 297.867 47.2952C297.282 47.0539 296.642 46.8529 295.952 46.6858C295.262 46.5219 294.563 46.3456 293.858 46.1569C293.153 45.9682 292.506 45.7239 291.922 45.4238C291.337 45.1238 290.867 44.7155 290.514 44.1958C290.162 43.6792 289.985 43.0049 289.985 42.179C289.985 41.4274 290.18 40.7376 290.57 40.1066C290.96 39.4756 291.569 38.9652 292.395 38.5754C293.221 38.1857 294.279 37.9908 295.572 37.9908C296.444 37.9908 297.304 38.1176 298.151 38.3744C298.999 38.6311 299.726 38.9745 300.326 39.4106L299.899 40.3355C299.237 39.8839 298.529 39.5498 297.771 39.3333C297.013 39.1168 296.28 39.0054 295.575 39.0054C294.57 39.0054 293.734 39.1477 293.075 39.4323C292.414 39.7168 291.928 40.0973 291.612 40.5706C291.297 41.0438 291.139 41.5728 291.139 42.1574C291.139 42.8317 291.315 43.373 291.668 43.7782C292.021 44.1834 292.491 44.5082 293.075 44.7464C293.66 44.9877 294.307 45.1887 295.012 45.3558C295.717 45.5228 296.416 45.696 297.106 45.8847C297.796 46.0734 298.436 46.3178 299.021 46.6178C299.605 46.9178 300.079 47.323 300.44 47.8334C300.799 48.3438 300.982 49.0057 300.982 49.8162C300.982 50.5524 300.778 51.239 300.372 51.8763C299.967 52.5135 299.349 53.0238 298.513 53.4074C297.681 53.7909 296.611 53.9827 295.303 53.9827H295.296Z" fill="#EBF1FF"/>
<path d="M304.873 53.8714V38.1022H306.021V53.8714H304.873Z" fill="#EBF1FF"/>
<path d="M318.254 53.9827C317.066 53.9827 315.971 53.7847 314.966 53.3857C313.961 52.9867 313.085 52.4268 312.343 51.7061C311.601 50.9854 311.025 50.1409 310.62 49.1728C310.215 48.2046 310.011 47.1405 310.011 45.9868C310.011 44.833 310.215 43.7689 310.62 42.7977C311.025 41.8295 311.604 40.985 312.355 40.2643C313.107 39.5436 313.979 38.9837 314.978 38.5847C315.978 38.1857 317.076 37.9877 318.279 37.9877C319.482 37.9877 320.478 38.1671 321.456 38.529C322.433 38.8909 323.265 39.4292 323.955 40.1499L323.234 40.917C322.545 40.2427 321.79 39.7601 320.97 39.4756C320.15 39.191 319.263 39.0487 318.301 39.0487C317.28 39.0487 316.333 39.2219 315.461 39.5653C314.589 39.9117 313.831 40.3973 313.188 41.0284C312.541 41.6594 312.043 42.3955 311.69 43.2369C311.338 44.0783 311.161 44.9938 311.161 45.9868C311.161 46.9797 311.338 47.8953 311.69 48.7335C312.043 49.5749 312.541 50.3111 313.188 50.9421C313.834 51.5731 314.592 52.0618 315.461 52.4052C316.333 52.7516 317.277 52.9217 318.301 52.9217C319.232 52.9217 320.113 52.7795 320.948 52.4949C321.78 52.2103 322.545 51.737 323.234 51.0751L323.887 51.9536C323.182 52.6279 322.337 53.1352 321.354 53.4754C320.37 53.8126 319.337 53.9827 318.257 53.9827H318.254ZM322.78 51.8453V46.0548H323.884V51.9567L322.78 51.8453Z" fill="#EBF1FF"/>
<path d="M328.932 53.8714V38.1022H329.9L341.141 52.4516H340.621V38.1022H341.769V53.8714H340.822L329.56 39.522H330.076V53.8714H328.929H328.932Z" fill="#EBF1FF"/>
<path d="M261.036 81.0174C260.046 81.0174 259.162 80.8534 258.388 80.5224C257.615 80.1915 257.006 79.7306 256.563 79.1367C256.121 78.5428 255.898 77.8561 255.898 77.0766C255.898 76.4301 256.04 75.8331 256.325 75.2856C256.61 74.7381 257.08 74.1906 257.732 73.64C258.385 73.0925 259.261 72.511 260.356 71.8955C261.318 71.3387 262.075 70.8593 262.629 70.454C263.186 70.0488 263.576 69.6591 263.801 69.2817C264.027 68.9074 264.139 68.5022 264.139 68.0661C264.139 67.4196 263.925 66.903 263.495 66.5133C263.068 66.1236 262.456 65.9287 261.658 65.9287C260.816 65.9287 260.161 66.1421 259.687 66.5721C259.214 66.9989 258.979 67.5681 258.979 68.2733C258.979 68.6043 259.032 68.9198 259.137 69.2198C259.242 69.5199 259.434 69.854 259.712 70.2221C259.991 70.5901 260.377 71.0448 260.872 71.5862L269.23 80.3956L268.553 81.138L259.947 72.0811C259.421 71.5243 259.01 71.0387 258.707 70.618C258.407 70.1973 258.2 69.8045 258.088 69.4364C257.974 69.0683 257.918 68.6816 257.918 68.2764C257.918 67.6299 258.073 67.067 258.379 66.5875C258.685 66.1081 259.121 65.7307 259.684 65.4616C260.247 65.1925 260.903 65.0564 261.655 65.0564C262.36 65.0564 262.972 65.177 263.492 65.4183C264.012 65.6596 264.411 65.9998 264.698 66.4422C264.983 66.8845 265.125 67.4227 265.125 68.0537C265.125 68.6105 264.992 69.124 264.729 69.5972C264.466 70.0705 264.027 70.5437 263.412 71.017C262.796 71.4903 261.955 72.0285 260.888 72.6286C259.898 73.2008 259.115 73.7174 258.546 74.1814C257.974 74.6484 257.575 75.1 257.34 75.5455C257.108 75.9878 256.99 76.4734 256.99 76.9993C256.99 77.6148 257.163 78.1561 257.51 78.6201C257.856 79.0872 258.333 79.446 258.939 79.7027C259.548 79.9595 260.257 80.0863 261.067 80.0863C262.15 80.0863 263.108 79.8636 263.95 79.4213C264.791 78.9789 265.496 78.3077 266.069 77.4045C266.638 76.5044 267.052 75.3691 267.309 74.002L268.234 74.2958C267.949 75.7836 267.476 77.024 266.814 78.0231C266.152 79.0222 265.336 79.7739 264.358 80.275C263.381 80.7792 262.27 81.0297 261.024 81.0297L261.036 81.0174Z" fill="#EBF1FF"/>
<path d="M282.435 80.9029L275.407 65.1338H276.669L283.381 80.2039H282.682L289.419 65.1338H290.613L283.586 80.9029H282.435Z" fill="#EBF1FF"/>
<path d="M293.496 80.9029V65.1338H294.644V80.9029H293.496Z" fill="#EBF1FF"/>
<path d="M300.14 80.9029V65.1338H306.379C308.047 65.1338 309.51 65.4709 310.772 66.1483C312.034 66.8257 313.014 67.7568 313.71 68.9415C314.409 70.1293 314.759 71.4872 314.759 73.0183C314.759 74.5495 314.409 75.9105 313.71 77.0952C313.011 78.283 312.031 79.214 310.772 79.8884C309.51 80.5627 308.047 80.9029 306.379 80.9029H300.14ZM301.291 79.8667H306.293C307.781 79.8667 309.07 79.5728 310.169 78.9882C311.264 78.4036 312.114 77.5963 312.714 76.5662C313.314 75.5362 313.614 74.3546 313.614 73.0183C313.614 71.6821 313.314 70.5005 312.714 69.4704C312.114 68.4404 311.264 67.6331 310.169 67.0484C309.074 66.4638 307.781 66.17 306.293 66.17H301.291V79.8667Z" fill="#EBF1FF"/>
<path d="M329.628 79.8667V80.9029H318.746V65.1338H329.288V66.17H319.894V79.8667H329.628ZM319.764 72.3873H328.301V73.4019H319.764V72.3873Z" fill="#EBF1FF"/>
<path d="M340.51 81.0174C339.338 81.0174 338.252 80.8194 337.256 80.4204C336.257 80.0214 335.388 79.4584 334.642 78.7315C333.9 78.0046 333.324 77.1539 332.919 76.1858C332.514 75.2176 332.31 74.1628 332.31 73.0214C332.31 71.88 332.514 70.8252 332.919 69.8571C333.324 68.8889 333.9 68.0414 334.642 67.3114C335.384 66.5814 336.257 66.0184 337.256 65.6225C338.255 65.2234 339.341 65.0255 340.51 65.0255C341.679 65.0255 342.765 65.2234 343.764 65.6225C344.763 66.0215 345.629 66.5814 346.365 67.3021C347.102 68.0228 347.677 68.8672 348.088 69.8354C348.503 70.8036 348.707 71.8677 348.707 73.0245C348.707 74.1814 348.5 75.2423 348.088 76.2105C347.674 77.1787 347.102 78.0231 346.365 78.7439C345.629 79.4646 344.763 80.0245 343.764 80.4235C342.765 80.8225 341.679 81.0205 340.51 81.0205V81.0174ZM340.51 79.9564C341.515 79.9564 342.446 79.7832 343.303 79.4398C344.16 79.0934 344.902 78.6078 345.533 77.9767C346.164 77.3457 346.656 76.6095 347.009 75.7682C347.361 74.9268 347.538 74.0113 347.538 73.0214C347.538 72.0316 347.361 71.0944 347.009 70.2623C346.656 69.4302 346.164 68.6971 345.533 68.0661C344.902 67.4351 344.16 66.9464 343.303 66.603C342.446 66.2566 341.515 66.0864 340.51 66.0864C339.505 66.0864 338.574 66.2597 337.717 66.603C336.86 66.9495 336.114 67.4351 335.474 68.0661C334.837 68.6971 334.339 69.4302 333.986 70.2623C333.634 71.0944 333.457 72.0161 333.457 73.0214C333.457 74.0267 333.634 74.9299 333.986 75.7682C334.339 76.6095 334.834 77.3457 335.474 77.9767C336.111 78.6078 336.86 79.0965 337.717 79.4398C338.574 79.7863 339.505 79.9564 340.51 79.9564Z" fill="#EBF1FF"/>
</svg>
