<svg width="221" height="55" viewBox="0 0 221 55" fill="none" xmlns="http://www.w3.org/2000/svg">
<path d="M3.84984 41.9778L0.00979702 52.9471H12.2963L15.6777 41.9778H3.84984Z" fill="#0F1B33"/>
<path d="M33.6567 3.46368H17.3282L6.87835 33.3215H0V41.9777H34.8112L38.1926 52.947H50.8928L33.6567 3.46368ZM18.4004 33.3176L20.2959 27.2155C21.6994 22.7619 23.101 18.1436 24.3379 13.6901H26.3177C27.4722 18.1436 28.7915 22.7619 30.193 27.2155L32.0905 33.3176H18.4004Z" fill="#0F1B33"/>
<path d="M65.4884 52.9451H54.2722V0H65.4884V52.9451Z" fill="#0F1B33"/>
<path d="M71.6729 34.2252C71.6729 20.6997 79.0119 12.7825 91.714 12.7825C103.754 12.7825 109.444 19.8745 109.444 30.6791C109.444 32.3277 109.362 33.8958 109.197 35.958H82.7245C83.3851 42.2267 86.2705 45.0298 91.6317 45.0298C96.9928 45.0298 98.559 42.556 99.5489 39.5863L108.95 42.1424C107.219 48.9051 102.681 54.0173 91.5493 54.0173C79.7568 54.0173 71.6748 47.5016 71.6748 34.2252H71.6729ZM99.1353 30.2655C98.9707 24.1634 96.4146 21.1937 91.3827 21.1937C86.3509 21.1937 83.3831 23.8322 82.8049 30.2655H99.1353Z" fill="#0F1B33"/>
<path d="M131.792 37.5242H130.391L124.289 52.9451H111.753V52.0375L122.969 32.4923L111.918 14.7603V13.8528H124.783L131.545 28.9444H133.029L139.214 13.8528H151.089V14.7603L140.451 34.1409L151.584 52.0375V52.9451H138.72L131.792 37.5242Z" fill="#0F1B33"/>
<path d="M163.165 34.1389V24.1458H167.119C168.176 24.1458 169.103 24.3595 169.903 24.7887C170.702 25.218 171.324 25.808 171.765 26.5588C172.208 27.3115 172.429 28.172 172.429 29.1423C172.429 30.1126 172.208 30.9751 171.765 31.7259C171.322 32.4786 170.7 33.0686 169.903 33.496C169.103 33.9233 168.176 34.1389 167.119 34.1389H163.165ZM163.893 33.4822H167.062C168.005 33.4822 168.822 33.296 169.518 32.9255C170.212 32.5551 170.751 32.0434 171.132 31.3907C171.512 30.738 171.702 29.9892 171.702 29.1423C171.702 28.2955 171.512 27.5467 171.132 26.894C170.751 26.2412 170.212 25.7296 169.518 25.3592C168.824 24.9887 168.005 24.8025 167.062 24.8025H163.893V33.4822Z" fill="#0F1B33"/>
<path d="M181.852 33.4822V34.1389H174.956V24.1458H181.636V24.8025H175.683V33.4822H181.852ZM175.599 28.7425H181.009V29.3854H175.599V28.7425Z" fill="#0F1B33"/>
<path d="M187.133 34.2095C186.39 34.2095 185.688 34.084 185.028 33.8312C184.365 33.5783 183.853 33.2529 183.493 32.853L183.822 32.31C184.165 32.6629 184.633 32.9589 185.227 33.2019C185.821 33.445 186.453 33.5665 187.119 33.5665C187.786 33.5665 188.33 33.4783 188.754 33.3019C189.177 33.1255 189.491 32.8903 189.697 32.5962C189.901 32.3022 190.004 31.9729 190.004 31.6122C190.004 31.1829 189.891 30.8418 189.661 30.5851C189.434 30.3283 189.134 30.1244 188.762 29.9715C188.391 29.8186 187.985 29.6912 187.548 29.5854C187.111 29.4815 186.668 29.3697 186.221 29.2502C185.774 29.1306 185.365 28.9757 184.994 28.7856C184.624 28.5955 184.326 28.3367 184.102 28.0074C183.879 27.68 183.767 27.2527 183.767 26.7293C183.767 26.253 183.891 25.8159 184.138 25.416C184.385 25.0161 184.771 24.6927 185.294 24.4457C185.817 24.1987 186.488 24.0752 187.307 24.0752C187.86 24.0752 188.405 24.1556 188.942 24.3183C189.479 24.481 189.94 24.6986 190.32 24.975L190.05 25.5611C189.63 25.2749 189.181 25.0632 188.701 24.926C188.221 24.7887 187.756 24.7182 187.309 24.7182C186.672 24.7182 186.143 24.8083 185.725 24.9887C185.306 25.169 184.998 25.4101 184.798 25.71C184.598 26.0099 184.498 26.3451 184.498 26.7156C184.498 27.1429 184.61 27.486 184.833 27.7428C185.057 27.9996 185.355 28.2054 185.725 28.3563C186.096 28.5092 186.506 28.6366 186.952 28.7425C187.399 28.8483 187.842 28.9581 188.279 29.0777C188.717 29.1972 189.122 29.3521 189.493 29.5422C189.863 29.7324 190.163 29.9892 190.393 30.3126C190.62 30.636 190.736 31.0555 190.736 31.5691C190.736 32.0356 190.606 32.4708 190.349 32.8746C190.093 33.2784 189.701 33.6018 189.171 33.8449C188.644 34.0879 187.966 34.2095 187.137 34.2095H187.133Z" fill="#0F1B33"/>
<path d="M193.202 34.1389V24.1458H193.929V34.1389H193.202Z" fill="#0F1B33"/>
<path d="M201.681 34.2095C200.929 34.2095 200.235 34.084 199.598 33.8311C198.961 33.5783 198.406 33.2235 197.935 32.7668C197.465 32.31 197.1 31.7749 196.844 31.1614C196.587 30.5478 196.457 29.8735 196.457 29.1423C196.457 28.4112 196.587 27.7369 196.844 27.1214C197.1 26.5078 197.467 25.9727 197.943 25.516C198.42 25.0592 198.972 24.7044 199.606 24.4516C200.239 24.1987 200.935 24.0733 201.697 24.0733C202.46 24.0733 203.091 24.187 203.71 24.4163C204.33 24.6456 204.857 24.9867 205.294 25.4434L204.837 25.9296C204.4 25.5022 203.922 25.1965 203.402 25.0161C202.883 24.8358 202.32 24.7456 201.711 24.7456C201.064 24.7456 200.464 24.8554 199.911 25.073C199.359 25.2925 198.878 25.6003 198.471 26.0001C198.061 26.4 197.745 26.8666 197.522 27.3997C197.298 27.9329 197.187 28.5131 197.187 29.1423C197.187 29.7716 197.298 30.3518 197.522 30.883C197.745 31.4162 198.061 31.8827 198.471 32.2826C198.88 32.6825 199.361 32.9922 199.911 33.2098C200.464 33.4293 201.062 33.5371 201.711 33.5371C202.301 33.5371 202.859 33.447 203.389 33.2666C203.916 33.0863 204.4 32.7864 204.837 32.3669L205.251 32.9236C204.804 33.3509 204.269 33.6724 203.646 33.888C203.022 34.1017 202.367 34.2095 201.683 34.2095H201.681ZM204.549 32.855V29.1855H205.249V32.9255L204.549 32.855Z" fill="#0F1B33"/>
<path d="M208.448 34.1389V24.1458H209.062L216.185 33.2392H215.856V24.1458H216.583V34.1389H215.983L208.846 25.0455H209.173V34.1389H208.446H208.448Z" fill="#0F1B33"/>
<path d="M165.422 51.3416C164.794 51.3416 164.234 51.2377 163.744 51.028C163.254 50.8183 162.867 50.5262 162.587 50.1498C162.307 49.7735 162.166 49.3383 162.166 48.8443C162.166 48.4346 162.256 48.0563 162.436 47.7094C162.617 47.3624 162.914 47.0155 163.328 46.6665C163.742 46.3196 164.296 45.9511 164.99 45.561C165.6 45.2082 166.08 44.9043 166.431 44.6475C166.784 44.3908 167.031 44.1438 167.174 43.9046C167.317 43.6674 167.388 43.4107 167.388 43.1343C167.388 42.7246 167.252 42.3972 166.98 42.1502C166.709 41.9033 166.321 41.7798 165.816 41.7798C165.282 41.7798 164.867 41.915 164.567 42.1875C164.267 42.458 164.118 42.8187 164.118 43.2656C164.118 43.4753 164.151 43.6753 164.218 43.8654C164.285 44.0556 164.406 44.2673 164.583 44.5005C164.759 44.7338 165.004 45.0219 165.318 45.365L170.614 50.9476L170.185 51.4181L164.732 45.6786C164.398 45.3258 164.138 45.018 163.946 44.7514C163.755 44.4848 163.624 44.2359 163.553 44.0026C163.481 43.7694 163.446 43.5243 163.446 43.2676C163.446 42.8579 163.544 42.5011 163.738 42.1973C163.932 41.8935 164.208 41.6543 164.565 41.4838C164.922 41.3132 165.337 41.227 165.814 41.227C166.261 41.227 166.649 41.3034 166.978 41.4563C167.307 41.6092 167.56 41.8248 167.742 42.1052C167.923 42.3855 168.013 42.7265 168.013 43.1264C168.013 43.4793 167.929 43.8047 167.762 44.1046C167.595 44.4045 167.317 44.7044 166.927 45.0043C166.537 45.3042 166.004 45.6453 165.327 46.0256C164.7 46.3882 164.204 46.7156 163.844 47.0096C163.481 47.3056 163.228 47.5918 163.079 47.874C162.932 48.1543 162.858 48.4621 162.858 48.7953C162.858 49.1854 162.967 49.5284 163.187 49.8225C163.406 50.1185 163.708 50.3459 164.093 50.5085C164.479 50.6712 164.928 50.7516 165.441 50.7516C166.127 50.7516 166.735 50.6105 167.268 50.3302C167.801 50.0499 168.248 49.6245 168.611 49.0521C168.971 48.4817 169.234 47.7623 169.397 46.8959L169.983 47.0821C169.803 48.025 169.503 48.811 169.083 49.4442C168.664 50.0773 168.146 50.5536 167.527 50.8712C166.907 51.1907 166.204 51.3495 165.414 51.3495L165.422 51.3416Z" fill="#0F1B33"/>
<path d="M178.982 51.2691L174.529 41.276H175.328L179.582 50.8261H179.139L183.408 41.276H184.165L179.711 51.2691H178.982Z" fill="#0F1B33"/>
<path d="M185.992 51.2691V41.276H186.719V51.2691H185.992Z" fill="#0F1B33"/>
<path d="M190.202 51.2691V41.276H194.156C195.213 41.276 196.14 41.4897 196.94 41.919C197.739 42.3482 198.361 42.9383 198.802 43.689C199.245 44.4417 199.466 45.3023 199.466 46.2726C199.466 47.2429 199.245 48.1054 198.802 48.8561C198.359 49.6088 197.737 50.1989 196.94 50.6262C196.14 51.0535 195.213 51.2691 194.156 51.2691H190.202ZM190.932 50.6125H194.101C195.044 50.6125 195.862 50.4262 196.557 50.0558C197.251 49.6853 197.79 49.1737 198.171 48.5209C198.551 47.8682 198.741 47.1194 198.741 46.2726C198.741 45.4258 198.551 44.677 198.171 44.0242C197.79 43.3715 197.251 42.8598 196.557 42.4894C195.864 42.1189 195.044 41.9327 194.101 41.9327H190.932V50.6125Z" fill="#0F1B33"/>
<path d="M208.889 50.6125V51.2691H201.993V41.276H208.673V41.9327H202.72V50.6125H208.889ZM202.638 45.8727H208.048V46.5156H202.638V45.8727Z" fill="#0F1B33"/>
<path d="M215.785 51.3416C215.042 51.3416 214.354 51.2162 213.723 50.9633C213.09 50.7105 212.539 50.3537 212.067 49.8931C211.596 49.4324 211.232 48.8933 210.975 48.2798C210.718 47.6663 210.589 46.9978 210.589 46.2745C210.589 45.5512 210.718 44.8828 210.975 44.2692C211.232 43.6557 211.596 43.1186 212.067 42.656C212.537 42.1934 213.09 41.8366 213.723 41.5857C214.356 41.3328 215.044 41.2074 215.785 41.2074C216.526 41.2074 217.214 41.3328 217.847 41.5857C218.48 41.8386 219.029 42.1934 219.496 42.6501C219.962 43.1068 220.327 43.642 220.588 44.2555C220.85 44.8691 220.98 45.5434 220.98 46.2765C220.98 47.0096 220.848 47.6819 220.588 48.2955C220.325 48.909 219.962 49.4442 219.496 49.9009C219.029 50.3576 218.48 50.7124 217.847 50.9653C217.214 51.2182 216.526 51.3436 215.785 51.3436V51.3416ZM215.785 50.6693C216.422 50.6693 217.012 50.5595 217.555 50.3419C218.098 50.1224 218.569 49.8146 218.968 49.4148C219.368 49.0149 219.68 48.5484 219.903 48.0152C220.127 47.482 220.239 46.9018 220.239 46.2745C220.239 45.6473 220.127 45.0533 219.903 44.526C219.68 43.9987 219.368 43.5342 218.968 43.1343C218.569 42.7344 218.098 42.4247 217.555 42.2071C217.012 41.9876 216.422 41.8797 215.785 41.8797C215.148 41.8797 214.558 41.9895 214.015 42.2071C213.472 42.4266 213 42.7344 212.594 43.1343C212.19 43.5342 211.874 43.9987 211.651 44.526C211.428 45.0533 211.316 45.6375 211.316 46.2745C211.316 46.9116 211.428 47.484 211.651 48.0152C211.874 48.5484 212.188 49.0149 212.594 49.4148C212.998 49.8146 213.472 50.1244 214.015 50.3419C214.558 50.5615 215.148 50.6693 215.785 50.6693Z" fill="#0F1B33"/>
</svg>
