<svg width="1920" height="938" viewBox="0 0 1920 938" fill="none" xmlns="http://www.w3.org/2000/svg">
<rect width="1920" height="938" fill="#EBF1FF"/>
<mask id="mask0_236_7" style="mask-type:alpha" maskUnits="userSpaceOnUse" x="0" y="0" width="1920" height="938">
<rect width="1920" height="938" fill="#EBF1FF"/>
</mask>
<g mask="url(#mask0_236_7)">
<path d="M2339.37 486.547C2333.14 471.647 2322.42 457.668 2307.13 451.157C2301.91 449.449 2296.7 447.748 2291.48 446.04C2280.01 443.96 2268.8 444.898 2257.83 448.852C2130.17 477.254 2002.51 505.656 1874.85 534.053C1842.42 541.267 1809.99 548.483 1777.56 555.698C1770.53 533.486 1763.05 511.43 1754.85 489.612C1735.79 438.89 1712.79 389.63 1685.7 342.688C1658.81 296.089 1626.28 253.711 1588.67 215.233C1571.87 198.041 1553.76 182.103 1534.42 167.817C1529.55 164.22 1524.6 160.723 1519.57 157.337C1510.25 151.061 1500.9 143.762 1490.27 139.751C1484.2 137.462 1477.71 135.028 1471.29 133.721C1467.49 132.946 1463.15 133.052 1459.48 132.869C1455.03 132.648 1451.28 132.138 1447.08 132.767C1442.61 133.437 1434.08 135.256 1429.81 136.604C1428.73 136.945 1427.75 137.373 1426.71 137.831C1421.07 140.345 1414.87 143.279 1409.89 147.029C1406.73 149.411 1400.29 155.459 1397.5 158.342C1397.12 158.73 1396.72 159.082 1396.38 159.495C1392.38 164.233 1389.01 169.95 1385.92 175.274C1385.18 176.556 1384.48 177.837 1383.92 179.214C1376.81 196.792 1374.35 215.077 1371.09 233.581C1368.42 248.771 1365.75 263.969 1363.08 279.16C1357.74 309.548 1352.4 339.936 1347.06 370.324C1336.38 431.1 1325.7 491.876 1315.02 552.646C1308.56 589.397 1302.11 626.149 1295.65 662.899C1289.12 664.352 1282.59 665.805 1276.06 667.257C1267.99 669.903 1261.13 674.276 1255.49 680.381C1248.97 685.42 1244.03 691.79 1240.67 699.501C1233.87 713.727 1232.17 734.002 1238.37 748.798C1244.6 763.698 1255.32 777.677 1270.61 784.188C1271.78 784.571 1272.95 784.955 1274.13 785.34C1266.35 829.599 1258.57 873.853 1250.79 918.113C1248.17 933.036 1245.55 947.958 1242.93 962.881C1240.05 979.224 1243.79 997.483 1253.38 1011.11C1257.98 1018.15 1263.9 1023.62 1271.17 1027.51C1277.74 1032.59 1285.24 1035.76 1293.64 1037.04C1310.15 1039.38 1328.26 1037.06 1341.87 1026.58C1354.91 1016.55 1364.88 1002.89 1367.79 986.332C1380.61 913.319 1393.45 840.301 1406.28 767.288C1500.45 746.336 1594.62 725.383 1688.8 704.438C1705.21 764.216 1720.95 824.185 1740.19 883.135C1754.98 928.459 1771.89 973.124 1792.54 1016.12C1795.18 1024.2 1799.56 1031.05 1805.66 1036.7C1810.7 1043.22 1817.07 1048.15 1824.78 1051.51C1832.43 1055.53 1840.49 1057.38 1848.94 1057.06C1857.51 1058.24 1865.89 1057.16 1874.08 1053.82C1888.98 1047.58 1902.96 1036.86 1909.47 1021.57C1911.18 1016.36 1912.88 1011.14 1914.59 1005.93C1916.66 994.455 1915.72 983.242 1911.77 972.277C1886.9 920.466 1867.48 866.275 1850.59 811.398C1836.88 766.859 1824.78 721.862 1812.5 676.918C1903.62 656.645 1994.75 636.371 2085.87 616.104C2157.8 600.103 2229.73 584.096 2301.66 568.096C2309.73 565.45 2316.59 561.076 2322.23 554.972C2328.75 549.932 2333.69 543.563 2337.05 535.852C2343.85 521.626 2345.55 501.351 2339.35 486.554L2339.37 486.547ZM1429.89 633.051C1444.38 550.584 1458.87 468.11 1473.37 385.643C1478.32 357.427 1483.28 329.212 1488.24 300.99C1488.57 299.111 1488.91 297.231 1489.23 295.349C1497.11 302.608 1504.74 310.136 1512.13 317.921C1543.63 353.548 1570.05 393.35 1592.59 435.183C1616.88 482.846 1636.32 532.659 1653.05 583.403C1599.32 595.357 1545.6 607.311 1491.87 619.259C1471.2 623.853 1450.55 628.455 1429.88 633.049L1429.89 633.051Z" fill="black"/>
</g>
</svg>
